<svg width="60" height="60" viewBox="0 0 60 60" fill="none" xmlns="http://www.w3.org/2000/svg">
<rect width="60" height="60" rx="30" fill="#01AAD5"/>
<path d="M50.4563 29.958C50.4563 23.6462 45.3396 18.5294 39.0277 18.5294H20.4563C14.1445 18.5294 9.02772 23.6462 9.02772 29.958V33.5294C9.02772 39.8413 14.1445 44.958 20.4563 44.958H39.0277C45.3396 44.958 50.4563 39.8412 50.4563 33.5294V29.958Z" fill="#01AAD5"/>
<rect x="37.1101" y="15.8509" width="2.12847" height="0.417724" transform="rotate(32.6414 37.1101 15.8509)" fill="white"/>
<rect x="40.6555" y="24.287" width="2.77112" height="0.739051" transform="rotate(-30.1116 40.6555 24.287)" fill="#E50A3E"/>
<rect x="45.6785" y="19.6113" width="1.48581" height="0.739051" transform="rotate(37.6414 45.6785 19.6113)" fill="#FFB21D"/>
<mask id="mask0_239_1324" style="mask-type:alpha" maskUnits="userSpaceOnUse" x="9" y="14" width="42" height="31">
<rect width="41.4286" height="30" rx="11.4286" transform="matrix(-1 0 0 1 50.4563 14.958)" fill="#01AAD5"/>
</mask>
<g mask="url(#mask0_239_1324)">
<rect x="22.3002" y="26.8038" width="2.12847" height="0.417725" transform="rotate(-106.554 22.3002 26.8038)" fill="white"/>
<rect x="52.174" y="27.58" width="2.12847" height="1.06038" transform="rotate(-172.307 52.174 27.58)" fill="#F2D1BB"/>
<rect x="32.1371" y="31.1671" width="2.12847" height="1.06038" transform="rotate(-167.307 32.1371 31.1671)" fill="white"/>
<rect x="25.1294" y="18.1013" width="2.77112" height="0.739051" transform="rotate(-169.307 25.1294 18.1013)" fill="#E50A3E"/>
<rect x="18.2719" y="18.3582" width="1.48581" height="0.739051" transform="rotate(-101.554 18.2719 18.3582)" fill="#FFB21D"/>
<rect x="24.192" y="20.6202" width="1.80714" height="1.06038" transform="rotate(-136.554 24.192 20.6202)" fill="#FFB21D"/>
<rect x="16.7001" y="26.4431" width="0.843161" height="0.417725" transform="rotate(-66.5544 16.7001 26.4431)" fill="#FFB21D"/>
<ellipse cx="21.2228" cy="35.2101" rx="0.507696" ry="0.507696" transform="rotate(91.6925 21.2228 35.2101)" fill="#E50A3E"/>
<ellipse cx="42.3451" cy="38.4059" rx="0.186369" ry="0.186369" transform="rotate(91.6925 42.3451 38.4059)" fill="white"/>
<ellipse cx="41.353" cy="39.341" rx="0.507696" ry="0.507696" transform="rotate(91.6925 41.353 39.341)" fill="white"/>
<ellipse cx="31.4682" cy="31.173" rx="0.668359" ry="0.668359" transform="rotate(91.6925 31.4682 31.173)" fill="#FFB21D"/>
<ellipse cx="10.4989" cy="28.1646" rx="0.347033" ry="0.347033" transform="rotate(-9.55445 10.4989 28.1646)" fill="#E50A3E"/>
<ellipse cx="30.723" cy="23.7573" rx="0.668359" ry="0.668359" transform="rotate(91.6925 30.723 23.7573)" fill="#FFB21D"/>
<ellipse cx="40.8395" cy="29.5211" rx="0.347033" ry="0.347033" transform="rotate(91.6925 40.8395 29.5211)" fill="#E50A3E"/>
<ellipse cx="14.2435" cy="21.1808" rx="0.507696" ry="0.507696" transform="rotate(91.6925 14.2435 21.1808)" fill="white"/>
<path d="M23.8209 26.5928L24.1514 26.4204L24.466 26.6203L24.4501 26.9927L24.1196 27.1652L23.805 26.9652L23.8209 26.5928Z" fill="#F2D1BB"/>
<path d="M18.2848 21.6501L18.118 22.1501L17.618 21.9833L17.7847 21.4833L18.2848 21.6501Z" fill="#E50A3E"/>
<path d="M15.2185 33.8298L16.6984 33.7896L15.9933 35.0913L15.2185 33.8298Z" fill="#FFB21D"/>
<path d="M45.1134 37.5427L45.7121 37.3561L46.0745 37.8679L45.6998 38.3707L45.1058 38.1697L45.1134 37.5427Z" fill="white"/>
<path d="M31.19 17.959L30.8839 17.3906L31.5292 17.4096L31.19 17.959Z" fill="#F2D1BB"/>
<path d="M24.086 44.8092L23.9985 44.2894L24.5183 44.2019L24.6058 44.7217L24.086 44.8092Z" fill="white"/>
<path d="M37.303 38.8159C37.9469 37.3505 39.5011 34.3131 40.5668 33.8868C41.899 33.3539 42.9647 33.0209 43.431 32.5546C43.8973 32.0884 44.4967 31.8219 44.8298 32.155C45.0962 32.4214 43.7863 33.4205 43.098 33.8868C43.1646 34.02 43.3777 34.2731 43.6974 34.2198C44.0971 34.1532 47.0945 34.1532 48.0936 34.02C49.0928 33.8868 49.226 34.4863 49.226 34.6195C49.226 34.7527 47.6274 34.8859 46.8281 35.0192C46.3213 35.1036 45.8927 35.0821 45.6482 35.0474C46.3173 35.172 47.6423 35.4218 48.6265 35.6186C49.9587 35.8851 49.9587 36.2847 49.8921 36.4846C49.8388 36.6444 48.138 36.4624 47.2943 36.3513C47.9382 36.529 49.226 36.9641 49.226 37.2839C49.226 37.6036 46.2508 36.973 44.7632 36.6178C45.5847 37.1728 47.2277 38.3496 47.2277 38.616C47.2277 38.9491 46.9613 39.0823 46.7615 38.9491C46.5616 38.8159 44.6966 37.1506 42.9647 37.1506C41.2329 37.1506 40.5668 37.5503 40.1672 38.8159C39.8474 39.8283 39.0792 40.4589 38.7018 40.6143L37.303 38.8159Z" fill="#E5A072"/>
<path d="M43.098 33.8868C43.4089 33.6648 44.1105 33.1275 44.4302 32.7545" stroke="black" stroke-width="0.213149" stroke-linecap="round"/>
<path d="M44.7632 36.5512C46.0288 36.9064 48.6398 37.577 48.9595 37.4171C49.3592 37.2173 49.226 37.1507 48.0936 36.6178C47.1878 36.1915 45.8067 35.8629 45.2294 35.7519" stroke="black" stroke-width="0.213149" stroke-linecap="round"/>
<path d="M19.3852 32.2882L20.3843 36.6178L18.5192 38.3496C18.0308 36.7066 16.8673 33.2607 16.1213 32.6212C15.1888 31.8219 14.5227 31.9552 12.8575 31.7553C11.1922 31.5555 10.9258 31.4889 10.9924 31.1558C11.0457 30.8894 12.9685 30.8228 13.9232 30.8228C12.5688 30.3787 9.83341 29.3974 9.72684 29.0244C9.62026 28.6514 10.0821 28.6469 10.3263 28.6913C9.86007 28.4915 8.86093 28.3583 9.66024 27.8254C10.2997 27.3991 12.5466 28.3583 13.5902 28.8911C13.2793 28.6025 12.4312 27.852 11.5253 27.1593C10.393 26.2934 11.1256 26.36 11.7251 26.5598C12.3246 26.7597 16.3211 29.4906 16.7874 29.4906C17.2537 29.4906 17.1205 29.5572 16.521 28.4249C15.9215 27.2925 16.2546 26.8929 16.854 27.2259C17.3336 27.4924 17.5867 28.2695 17.6533 28.6247C17.9198 28.9133 18.5859 29.6905 19.1187 30.4898C19.6516 31.2891 19.5184 32.0218 19.3852 32.2882Z" fill="#E5A072"/>
<path d="M9.3938 28.3583C10.3929 28.6247 12.6976 29.2642 13.9232 29.6905" stroke="#232323" stroke-width="0.213149" stroke-linecap="round"/>
<path d="M19.9181 34.8194C19.7405 33.8424 19.6117 31.6621 20.5176 30.7562C21.412 29.8618 25.0208 29.2834 26.7788 29.0979C28.9325 28.2075 33.8394 26.9995 36.2373 29.2908C38.6352 31.5822 39.7676 33.5316 40.034 34.2199L37.8359 38.4828L39.6344 39.6152L40.1672 38.7493C40.9133 39.1756 41.3218 39.9482 41.4328 40.2813L39.4345 42.6126C40.1273 44.2112 39.1015 45.1437 38.502 45.4102C38.058 45.9875 36.9434 47.3818 36.0375 48.341C35.1316 49.3001 33.6618 49.0071 33.0401 48.7406C31.8145 49.6998 30.1759 50.0728 29.5098 50.1394C23.8081 51.0453 21.0505 48.785 20.3844 47.5417C20.0647 47.2219 20.1623 46.5203 20.2512 46.2095C18.6525 44.3977 18.4749 42.1241 18.5859 41.2138C18.2529 40.903 17.3737 39.9482 16.5211 38.6161C15.6685 37.2839 16.9207 35.9739 17.6534 35.4854L18.3195 37.7501C20.1846 36.5778 20.1624 35.3078 19.9181 34.8194Z" fill="#FFB21D"/>
<path d="M35.5712 36.8842C34.5943 38.6605 32.6404 42.4794 32.6404 43.5451C31.7745 45.0993 30.7487 48.3543 33.5729 48.9404C34.35 49.2513 36.3972 49.007 38.3688 45.5434" stroke="black" stroke-width="0.213149" stroke-linecap="round"/>
<path d="M25.4479 29.2691C26.2514 31.5375 28.3315 34.5993 32.1075 33.6204C34.616 32.97 35.6711 31.0434 36.0103 29.0902C33.5417 27.0731 28.8666 28.2347 26.7788 29.0979C26.4044 29.1374 25.946 29.1947 25.4479 29.2691Z" fill="#F2D1BB"/>
<path d="M24.9803 32.4214C24.9803 33.4428 25.3001 35.8851 26.579 37.4837" stroke="#232323" stroke-width="0.213149" stroke-linecap="round"/>
<path d="M18.5858 41.2138C18.5192 43.0789 19.1587 46.8623 22.2493 47.0754C25.34 47.2886 25.4022 44.189 25.0469 42.6126C25.0247 39.7928 24.4874 33.5271 22.5158 31.0226" stroke="#232323" stroke-width="0.213149" stroke-linecap="round"/>
<path d="M27.4449 25.2943C27.3339 25.5163 27.1652 26.0403 27.3783 26.36" stroke="#232323" stroke-width="0.213149" stroke-linecap="round"/>
<path d="M31.3083 25.4941C31.4193 25.7161 31.588 26.2401 31.3749 26.5598" stroke="#232323" stroke-width="0.213149" stroke-linecap="round"/>
<path d="M29.3099 32.7545C27.8712 32.0618 26.6234 29.6683 26.1793 28.5581C24.7939 25.0945 26.1793 20.232 27.0452 18.2337C27.7113 17.9451 29.6829 17.5277 32.2407 18.1671C34.7985 18.8066 34.5943 27.67 34.1724 32.0218C33.1511 32.5547 30.7487 33.4472 29.3099 32.7545Z" fill="#E5A072"/>
<ellipse opacity="0.3" cx="27.3341" cy="24.2258" rx="0.701865" ry="0.331963" transform="rotate(4.89398 27.3341 24.2258)" fill="#E50A3E"/>
<ellipse opacity="0.3" cx="31.2365" cy="24.4193" rx="0.701865" ry="0.331963" transform="rotate(4.89398 31.2365 24.4193)" fill="#E50A3E"/>
<path d="M32.7894 32.5986C32.0089 32.858 31.0976 33.056 30.2912 32.9971C30.8284 32.1869 31.3504 30.9881 31.7079 29.2242C30.842 29.8681 28.8437 30.1035 27.2451 27.4924C27.3769 27.614 27.5025 27.7341 27.6243 27.8506C28.3027 28.4993 28.8626 29.0345 29.7096 29.091C31.1853 29.1894 32.2408 27.892 33.3065 25.7606L32.7894 32.5986Z" fill="#BE693B"/>
<path d="M30.8297 26.9819C30.4791 27.3261 29.8829 27.5576 29.2032 27.4759C28.6479 27.4093 28.2463 27.2416 27.9802 27.0293C27.555 26.6903 27.4737 26.2384 27.6586 25.901C27.7889 25.6631 28.0141 25.6069 28.2608 25.613C28.4411 25.6162 28.6339 25.6536 28.8092 25.6768C29.1484 25.7207 29.7239 25.1994 30.3931 25.4121C30.5418 25.4595 30.6952 25.5432 30.8516 25.6768C31.3065 26.0663 31.2224 26.5952 30.8295 26.9819H30.8297Z" fill="#232323"/>
<path d="M29.2032 27.4759C29.883 27.5577 30.4792 27.3261 30.8297 26.9819C30.8674 26.9448 30.9022 26.9064 30.934 26.867C30.5385 26.6555 29.9721 26.5365 29.3492 26.5637C28.7744 26.5893 28.2593 26.7347 27.8888 26.9498C27.9173 26.9769 27.9477 27.0034 27.9802 27.0293C28.2463 27.2416 28.648 27.4093 29.2032 27.4759Z" fill="#E50A3E"/>
<path d="M28.0583 26.1786C28.4047 26.257 29.526 26.4559 30.5542 26.0269V26.0271C30.6056 26.0056 30.6347 25.9501 30.6256 25.8947L30.5573 25.4789C30.502 25.4514 30.4473 25.4294 30.3931 25.4121C29.9777 25.2801 29.5984 25.4309 29.2893 25.5537C29.1005 25.6288 28.9379 25.6934 28.8093 25.6768C28.7627 25.6706 28.715 25.6635 28.6665 25.6562C28.5325 25.6362 28.3933 25.6154 28.2608 25.613C28.1784 25.611 28.0983 25.6159 28.0234 25.6322L27.966 26.0425C27.9571 26.1053 27.9971 26.1647 28.0583 26.1786Z" fill="white"/>
<path d="M29.31 22.097C29.2212 22.6521 28.9503 23.8555 28.5773 24.2285C28.111 24.6948 28.8437 25.1611 29.3766 25.0278" stroke="#232323" stroke-width="0.266436" stroke-linecap="round"/>
<path d="M32.4759 21.2139L32.6085 21.3995C32.6741 21.4914 32.6025 21.6189 32.4897 21.6138C31.3573 21.5624 30.6047 21.7286 30.2776 21.8533C30.2175 21.8763 30.145 21.8592 30.1317 21.7962C30.1079 21.6838 30.1431 21.5194 30.3757 21.3643C30.6826 21.1598 31.873 21.1229 32.3805 21.1595C32.419 21.1623 32.4535 21.1825 32.4759 21.2139Z" fill="#232323"/>
<path d="M26.587 20.9174L26.4428 21.0941C26.3714 21.1815 26.4346 21.3134 26.5475 21.3156C27.6809 21.3372 28.4213 21.5515 28.7396 21.697C28.7982 21.7238 28.8716 21.7114 28.8889 21.6494C28.9198 21.5388 28.8953 21.3725 28.6732 21.2028C28.3801 20.9788 27.1946 20.8654 26.6857 20.8693C26.6472 20.8696 26.6114 20.8875 26.587 20.9174Z" fill="#232323"/>
<mask id="mask1_239_1324" style="mask-type:alpha" maskUnits="userSpaceOnUse" x="30" y="21" width="4" height="3">
<path d="M32.8658 23.2001C32.3502 23.3033 31.1071 23.1445 30.4639 23.0134C30.4243 23.0053 30.3906 22.9797 30.3742 22.9427C30.1859 22.5173 30.0501 21.656 31.0674 21.4017C32.3995 21.0687 33.5319 23.0669 32.8658 23.2001Z" fill="#232323"/>
</mask>
<g mask="url(#mask1_239_1324)">
<ellipse cx="31.3748" cy="22.6299" rx="0.732699" ry="0.732699" fill="white"/>
<ellipse cx="31.508" cy="22.6299" rx="0.466263" ry="0.466263" fill="#232323"/>
</g>
<mask id="mask2_239_1324" style="mask-type:alpha" maskUnits="userSpaceOnUse" x="26" y="21" width="4" height="3">
<path d="M29.2689 23.067C28.7533 23.1701 27.5102 23.0113 26.867 22.8802C26.8273 22.8721 26.7936 22.8465 26.7773 22.8095C26.589 22.3841 26.4531 21.5229 27.4704 21.2685C28.8026 20.9355 29.935 22.9338 29.2689 23.067Z" fill="#232323"/>
</mask>
<g mask="url(#mask2_239_1324)">
<ellipse cx="27.7779" cy="22.4967" rx="0.732699" ry="0.732699" fill="white"/>
<ellipse cx="27.9111" cy="22.4967" rx="0.466263" ry="0.466263" fill="#232323"/>
</g>
<path d="M30.6421 23.0962C30.9307 23.1184 31.6013 23.1894 31.9743 23.296" stroke="#232323" stroke-width="0.213149" stroke-linecap="round"/>
<path d="M27.0453 22.963C27.3339 22.9852 28.0045 23.0562 28.3775 23.1628" stroke="#232323" stroke-width="0.213149" stroke-linecap="round"/>
<path d="M29.0435 18.3003C28.1776 18.1449 26.4058 18.6201 26.2459 21.764C26.0461 25.6939 26.3791 26.4932 27.5781 28.0252L27.5115 28.8912C26.4013 29.091 24.0212 29.504 23.3817 29.5573C23.9146 28.2251 25.007 25.1211 25.1135 23.3626C25.2468 21.1645 25.3134 15.7692 30.0426 15.1031C31.0417 14.7701 33.4263 14.7967 34.9717 17.5676C36.9033 21.0313 37.8359 31.4889 37.9025 32.6213C37.9691 33.7536 38.0357 36.2848 38.3687 36.6178L37.636 35.8851C37.2142 36.7066 36.0774 38.6294 34.9051 39.7484C33.7328 40.8675 32.2407 41.5469 31.6412 41.7467C31.8633 41.6135 32.3206 41.2938 32.3739 41.0806C32.4405 40.8142 31.0417 41.014 30.7753 38.9491C30.6304 37.8263 30.9082 37.1117 31.2195 36.7134C30.6419 37.3352 30.0424 38.5425 30.5089 40.2813C30.2868 40.1259 29.9227 39.2955 30.2424 37.2173C30.6421 34.6195 32.3073 33.4206 32.8402 29.6239C33.3731 25.8271 33.04 20.9647 31.508 19.4993C29.976 18.0339 29.1767 18.3184 29.0435 18.3003Z" fill="#232323"/>
<path d="M29.0435 18.3003C28.1776 18.1449 26.4058 18.6201 26.2459 21.764C26.0461 25.6939 26.3791 26.4932 27.5781 28.0252L27.5115 28.8912C26.4013 29.091 24.0212 29.504 23.3817 29.5572C23.9146 28.2251 25.007 25.1211 25.1135 23.3626C25.2468 21.1645 25.3134 15.7692 30.0426 15.1031C31.0417 14.7701 33.4263 14.7967 34.9717 17.5676C36.9033 21.0313 37.8359 31.4889 37.9025 32.6213C37.9691 33.7536 38.0357 36.2848 38.3687 36.6178L37.636 35.8851C37.2142 36.7066 36.0774 38.6294 34.9051 39.7484C33.7328 40.8675 32.2407 41.5469 31.6412 41.7467C31.8633 41.6135 32.3206 41.2938 32.3739 41.0806C32.4405 40.8142 31.0417 41.014 30.7753 38.9491C30.5622 37.2972 31.2638 36.529 31.6412 36.3514C31.0195 36.751 29.9227 38.0965 30.5089 40.2813C30.2868 40.1259 29.9227 39.2955 30.2424 37.2173C30.6421 34.6195 32.3073 33.4206 32.8402 29.6239C33.3731 25.8271 33.04 20.9647 31.508 19.4993C29.976 18.0339 29.1767 18.3184 29.0435 18.3003Z" stroke="#232323" stroke-width="0.266436" stroke-linecap="round"/>
<path d="M10.9924 26.7596C11.9028 27.4923 13.8833 29.011 14.5227 29.2242" stroke="#232323" stroke-width="0.213149" stroke-linecap="round"/>
<path d="M16.4543 27.1593C16.6098 27.1371 17.0005 27.2392 17.3203 27.8254C17.64 28.4116 17.7643 28.7357 17.7865 28.8245C18.4748 29.4906 19.7582 31.1159 19.3851 32.2882L19.4517 32.5546C19.3407 33.1541 18.7857 34.0733 17.4535 32.9543" stroke="#232323" stroke-width="0.213149" stroke-linecap="round"/>
<path d="M16.3873 38.3713C15.8202 37.1263 16.9657 35.944 17.6534 35.4855L18.3195 37.7502C18.341 37.7367 18.3623 37.7231 18.3833 37.7096L18.3861 37.7502C18.1642 38.0574 17.504 38.4985 16.3873 38.3713Z" fill="#DE8845"/>
<path d="M38.2068 37.7636L37.8359 38.4829L39.6344 39.6152L40.1672 38.7493C40.9133 39.1756 41.3218 39.9483 41.4328 40.2813L41.2404 40.5058C40.3671 40.0149 37.6187 38.5956 37.5029 38.0166C37.4109 37.5569 37.8407 37.6595 38.2068 37.7636Z" fill="#DE8845"/>
<path d="M40.1006 38.9491C40.1894 38.5051 40.5802 37.5503 41.4328 37.2839C42.2854 37.0175 43.2534 37.1729 43.6309 37.2839" stroke="black" stroke-width="0.213149" stroke-linecap="round"/>
<path d="M49.9918 36.418C49.9918 36.0849 49.3257 35.7519 48.1267 35.4854C47.1676 35.2723 46.0396 35.0858 45.5956 35.0192" stroke="black" stroke-width="0.213149" stroke-linecap="round"/>
<path d="M18.386 37.7501C17.8975 36.2847 16.8274 33.274 16.4543 32.9543" stroke="#232323" stroke-width="0.213149" stroke-linecap="round"/>
<path fill-rule="evenodd" clip-rule="evenodd" d="M33.0994 30.6666C33.0235 30.2752 32.6447 30.0195 32.2534 30.0955L23.3077 31.8309C22.9164 31.9068 22.6607 32.2856 22.7366 32.677L24.8157 43.3941C24.8916 43.7854 25.2704 44.0411 25.6617 43.9652L29.2712 43.2649C29.4492 43.2304 29.6321 43.2935 29.751 43.4303V43.4303C30.0072 43.7253 30.4866 43.6323 30.614 43.2629V43.2629C30.673 43.0915 30.8191 42.9646 30.9971 42.9301L31.5741 42.8182C31.7521 42.7837 31.935 42.8467 32.0539 42.9836V42.9836C32.3101 43.2785 32.7895 43.1855 32.9168 42.8162V42.8162C32.9759 42.6448 33.122 42.5179 33.2999 42.4834L34.6074 42.2297C34.9988 42.1538 35.2545 41.775 35.1785 41.3837L33.0994 30.6666ZM25.5285 43.991C25.2728 44.0406 25.1667 44.3484 25.3375 44.545V44.545C25.5083 44.7417 25.8279 44.6797 25.9128 44.4334V44.4334C25.9976 44.1872 25.7841 43.9414 25.5285 43.991V43.991ZM27.8313 43.5443C27.5756 43.5939 27.4695 43.9017 27.6403 44.0983V44.0983C27.8111 44.2949 28.1307 44.2329 28.2156 43.9867V43.9867C28.3005 43.7405 28.087 43.4947 27.8313 43.5443V43.5443ZM26.6799 43.7677C26.4242 43.8173 26.3181 44.1251 26.4889 44.3217V44.3217C26.6597 44.5183 26.9793 44.4563 27.0642 44.2101V44.2101C27.1491 43.9638 26.9356 43.7181 26.6799 43.7677V43.7677ZM31.6699 43.3166C31.585 43.5628 31.2654 43.6248 31.0946 43.4282V43.4282C30.9238 43.2315 31.0299 42.9238 31.2856 42.8742V42.8742C31.5413 42.8246 31.7548 43.0703 31.6699 43.3166V43.3166ZM28.9827 43.3209C28.7271 43.3705 28.621 43.6783 28.7917 43.8749V43.8749C28.9625 44.0715 29.2822 44.0095 29.367 43.7633V43.7633C29.4519 43.5171 29.2384 43.2713 28.9827 43.3209V43.3209ZM33.9727 42.8698C33.8879 43.116 33.5683 43.178 33.3975 42.9814V42.9814C33.2267 42.7848 33.3328 42.477 33.5884 42.4274V42.4274C33.8441 42.3778 34.0576 42.6236 33.9727 42.8698V42.8698ZM34.7399 42.204C34.4842 42.2536 34.3781 42.5614 34.5489 42.758V42.758C34.7197 42.9547 35.0393 42.8927 35.1242 42.6464V42.6464C35.209 42.4002 34.9956 42.1544 34.7399 42.204V42.204Z" fill="white"/>
<rect opacity="0.5" x="23.6024" y="32.8766" width="8.93203" height="0.72178" rx="0.36089" transform="rotate(-10.979 23.6024 32.8766)" fill="#D9D9D9"/>
<rect opacity="0.5" x="24.9427" y="39.7852" width="8.93203" height="0.72178" rx="0.36089" transform="rotate(-10.979 24.9427 39.7852)" fill="#D9D9D9"/>
<rect opacity="0.5" x="25.3551" y="41.9108" width="8.93203" height="0.72178" rx="0.36089" transform="rotate(-10.979 25.3551 41.9108)" fill="#D9D9D9"/>
<rect opacity="0.5" x="23.8087" y="33.9395" width="8.93203" height="0.72178" rx="0.36089" transform="rotate(-10.979 23.8087 33.9395)" fill="#D9D9D9"/>
<rect opacity="0.5" x="25.1489" y="40.848" width="8.93203" height="0.72178" rx="0.36089" transform="rotate(-10.979 25.1489 40.848)" fill="#D9D9D9"/>
<path fill-rule="evenodd" clip-rule="evenodd" d="M30.5635 35.4433C30.7372 35.1858 30.6693 34.8353 30.4119 34.6615C30.1546 34.4876 29.8044 34.5556 29.6306 34.8131L28.4248 36.6008L27.7243 36.1276C27.4667 35.9536 27.1169 36.0215 26.943 36.2793C26.7691 36.537 26.837 36.8871 27.0946 37.0611L28.2608 37.8489C28.3807 37.9299 28.5205 37.9585 28.6533 37.9399C28.8063 37.9188 28.95 37.8351 29.0432 37.697L30.5635 35.4433Z" fill="#23BA3B"/>
</g>
<rect width="2.12732" height="1.06022" transform="matrix(0.881896 -0.471444 0.470938 0.882166 37.7236 19.3334)" fill="#FFB21D"/>
</svg>
